<?xml version="1.0" encoding="UTF-8" standalone="no"?>
<!-- Generator: Adobe Illustrator 22.0.1, SVG Export Plug-In . SVG Version: 6.00 Build 0)  -->

<svg
   version="1.1"
   id="Capa_1"
   x="0px"
   y="0px"
   viewBox="0 0 200 60.000002"
   xml:space="preserve"
   width="80"
   height="25"
   inkscape:version="1.3.1 (9b9bdc1480, 2023-11-25, custom)"
   xmlns:inkscape="http://www.inkscape.org/namespaces/inkscape"
   xmlns:sodipodi="http://sodipodi.sourceforge.net/DTD/sodipodi-0.dtd"
   xmlns="http://www.w3.org/2000/svg"
   xmlns:svg="http://www.w3.org/2000/svg"><defs
   id="defs24">
	
</defs><sodipodi:namedview
   id="namedview24"
   pagecolor="#ffffff"
   bordercolor="#000000"
   borderopacity="0.25"
   inkscape:showpageshadow="2"
   inkscape:pageopacity="0.0"
   inkscape:pagecheckerboard="true"
   inkscape:deskcolor="#d1d1d1"
   inkscape:zoom="4.7694352"
   inkscape:cx="94.77013"
   inkscape:cy="19.079827"
   inkscape:window-width="1920"
   inkscape:window-height="1016"
   inkscape:window-x="0"
   inkscape:window-y="27"
   inkscape:window-maximized="1"
   inkscape:current-layer="Capa_1" />
<style
   type="text/css"
   id="style1">
	.st0{fill:#FFFFFF;}
	.st1{fill:none;stroke:#FFFFFF;stroke-width:5.679;stroke-linecap:round;stroke-linejoin:round;stroke-miterlimit:10;}
</style>
<g
   id="g23"
   style="fill:#00a960;stroke:#00a960;fill-opacity:1;stroke-opacity:1"
   transform="translate(0.00261,-1.5411613)">
		<g
   id="XMLID_13_"
   style="fill:#00a960;stroke:#00a960;fill-opacity:1;stroke-opacity:1">
			<path
   class="st0"
   d="m 191.5,58.4 c -5.3,0 -10.1,-2.7 -12.9,-6.8 -2.9,4.1 -7.6,6.7 -12.9,6.7 H 157 c -6.2,0 -11.2,-5 -11.2,-11.2 V 22.5 c 0,-1.8 -1.5,-3.3 -3.3,-3.3 -1.3,0 -2.5,0.8 -3,1.9 -0.1,0.1 -0.2,0.3 -0.2,0.4 l -6.3,9.1 c -0.5,0.8 -1.4,1.2 -2.3,1.2 0,0 0,0 0,0 -0.9,0 -1.8,-0.5 -2.3,-1.2 L 122,21.5 c -0.1,-0.1 -0.2,-0.3 -0.2,-0.4 -0.5,-1.2 -1.7,-1.9 -3,-1.9 -1.8,0 -3.3,1.5 -3.3,3.3 v 24.7 c 0,6.2 -5,11.2 -11.2,11.2 H 80.2 c -1.3,0 -2.4,-0.9 -2.7,-2.1 -0.3,-1.2 0.2,-2.6 1.4,-3.2 5.7,-3.2 9.3,-9.2 9.3,-15.8 0,-4.9 -1.9,-9.5 -5.5,-13 -3.5,-3.4 -8.2,-5.2 -13.1,-5.1 -9.3,0.3 -17,7.8 -17.6,17 -0.4,6.9 3,13.3 8.9,16.7 l 0.4,0.2 c 1.1,0.6 1.7,1.9 1.4,3.2 -0.3,1.3 -1.5,2.1 -2.8,2.1 H 37.5 c -4.2,0 -8.2,-2 -10.8,-5.3 L 15.8,39.3 C 14.9,38.2 14.6,36.8 14.9,35.5 15.2,34.2 16,33 17.2,32.3 l 8.7,-5.2 c 1.8,-1.1 3,-3.1 3,-5.3 0,-1.4 -1.1,-2.5 -2.5,-2.5 H 10.6 c -1.3,0 -2.3,1 -2.3,2.3 v 34 C 8.3,57.2 7,58.4 5.5,58.4 4,58.4 2.7,57.1 2.7,55.6 v -34 c 0,-4.4 3.6,-8 8,-8 h 15.7 c 4.5,0 8.2,3.7 8.2,8.2 0,4.1 -2.2,8 -5.8,10.1 l -7.9,4.7 10.3,13 c 1.5,2 3.9,3.1 6.3,3.1 H 52 C 48,48.1 46,42.1 46.3,35.8 47.1,23.7 57.2,14 69.3,13.6 c 6.5,-0.2 12.6,2.2 17.3,6.7 4.7,4.5 7.2,10.6 7.2,17 0,5.7 -2.1,11.2 -5.7,15.4 H 104 c 3.1,0 5.5,-2.5 5.5,-5.5 V 22.5 c 0,-5 4,-9 9,-9 3.4,0 6.5,1.9 8,4.9 l 3.9,5.6 3.9,-5.6 c 1.5,-3 4.6,-4.9 8,-4.9 5,0 9,4 9,9 v 24.7 c 0,3.1 2.5,5.5 5.5,5.5 h 8.7 c 5.6,0 10.1,-4.5 10.1,-10.1 V 25 c 0,-1.6 1.3,-2.8 2.8,-2.8 1.5,0 2.8,1.3 2.8,2.8 v 17.7 c 0,5.6 4.5,10.1 10.1,10.1 1.6,0 2.8,1.3 2.8,2.8 0,1.5 -1.1,2.8 -2.6,2.8 z"
   id="path22"
   style="fill:#00a960;stroke:#00a960;fill-opacity:1;stroke-opacity:1" />
			<path
   id="XMLID_15_"
   class="st1"
   d="M 31.7,26.3"
   style="fill:#00a960;stroke:#00a960;fill-opacity:1;stroke-opacity:1" />
			<path
   class="st0"
   d="m 178.39478,27.847393 c -0.6,0 -1.1,-0.2 -1.6,-0.5 -0.8,-0.5 -1.2,-1.4 -1.2,-2.4 l 0.1,-4.2 c 0,-5.7 3.2,-10.6 8.3,-12.4000004 l 9.5,-3.5 c 0.9,-0.3 1.8,-0.2 2.6,0.3 0.8,0.5 1.2,1.4 1.2,2.3 v 3.2000004 c 0,6.2 -3.9,11.7 -9.8,13.7 l -8,3.2 c -0.4,0.3 -0.7,0.3 -1.1,0.3 z m 13.1,-16.2 -5.7,2.1 c -2.7,1 -4.5,3.8 -4.5,7.1 v 0 l 4.1,-1.6 c 0,0 0.1,0 0.1,0 3.4,-1.2 5.7,-4.1 6,-7.6 z"
   id="path23"
   style="fill:#00a960;stroke:#00a960;fill-opacity:1;stroke-opacity:1" />
		</g>
	</g>
</svg>
